<svg xmlns="http://www.w3.org/2000/svg" height="20" width="20"><path d="M7.333 10.5h.896V9.021h.583q.376 0 .626-.25t.25-.625v-.604q0-.375-.25-.625t-.626-.25H7.333Zm.896-2.354v-.604h.583v.604Zm1.959 2.354h1.437q.396 0 .646-.25t.25-.625V7.542q0-.375-.261-.625-.26-.25-.614-.25h-1.458Zm.874-.875V7.542h.584v2.083Zm2.063.875H14V9.021h1.188v-.875H14v-.604h1.188v-.875h-2.063Zm-6.667 4.083q-.52 0-.885-.364-.365-.365-.365-.886v-9.5q0-.521.365-.885.365-.365.885-.365h9.5q.521 0 .886.365.364.364.364.885v9.5q0 .521-.364.886-.365.364-.886.364Zm0-1h9.5q.084 0 .167-.083t.083-.167v-9.5q0-.083-.083-.166-.083-.084-.167-.084h-9.5q-.083 0-.166.084-.084.083-.084.166v9.5q0 .084.084.167.083.083.166.083ZM4.042 17q-.521 0-.886-.365-.364-.364-.364-.885V5.25h1v10.5q0 .083.083.167.083.083.167.083h10.5v1ZM6.208 3.583v10-10Z"/></svg>